<svg width="535" height="535" viewBox="0 0 535 535" xmlns="http://www.w3.org/2000/svg">
	<style>
		path {
		fill: black;
		}
		@media (prefers-color-scheme: dark) {
		path {
			fill: white;
		}
		}
	</style>
	<path
		d="M251.094 329.016C251.094 340.604 248.88 351.477 244.453 361.633C240.026 371.789 233.971 380.708 226.289 388.391C218.737 395.943 209.883 401.932 199.727 406.359C189.57 410.786 178.698 413 167.109 413H27.0703V132.922H167.109C178.698 132.922 189.57 135.135 199.727 139.562C209.883 143.99 218.737 150.044 226.289 157.727C233.971 165.279 240.026 174.133 244.453 184.289C248.88 194.445 251.094 205.318 251.094 216.906C251.094 222.115 250.378 227.453 248.945 232.922C247.513 238.391 245.495 243.664 242.891 248.742C240.286 253.82 237.161 258.443 233.516 262.609C229.87 266.776 225.833 270.227 221.406 272.961C225.964 275.435 230.065 278.82 233.711 283.117C237.357 287.284 240.482 291.906 243.086 296.984C245.69 302.062 247.643 307.401 248.945 313C250.378 318.469 251.094 323.807 251.094 329.016ZM83.125 356.945H167.109C171.016 356.945 174.661 356.229 178.047 354.797C181.432 353.365 184.362 351.411 186.836 348.938C189.44 346.333 191.458 343.339 192.891 339.953C194.323 336.568 195.039 332.922 195.039 329.016C195.039 325.109 194.323 321.464 192.891 318.078C191.458 314.693 189.44 311.763 186.836 309.289C184.362 306.685 181.432 304.667 178.047 303.234C174.661 301.802 171.016 301.086 167.109 301.086H83.125V356.945ZM83.125 245.031H167.109C171.016 245.031 174.661 244.315 178.047 242.883C181.432 241.451 184.362 239.497 186.836 237.023C189.44 234.419 191.458 231.424 192.891 228.039C194.323 224.523 195.039 220.812 195.039 216.906C195.039 213 194.323 209.354 192.891 205.969C191.458 202.583 189.44 199.654 186.836 197.18C184.362 194.576 181.432 192.557 178.047 191.125C174.661 189.693 171.016 188.977 167.109 188.977H83.125V245.031ZM517.5 329.016C517.5 340.604 515.286 351.477 510.859 361.633C506.432 371.789 500.378 380.708 492.695 388.391C485.143 395.943 476.289 401.932 466.133 406.359C455.977 410.786 445.104 413 433.516 413H293.477V132.922H433.516C445.104 132.922 455.977 135.135 466.133 139.562C476.289 143.99 485.143 150.044 492.695 157.727C500.378 165.279 506.432 174.133 510.859 184.289C515.286 194.445 517.5 205.318 517.5 216.906C517.5 222.115 516.784 227.453 515.352 232.922C513.919 238.391 511.901 243.664 509.297 248.742C506.693 253.82 503.568 258.443 499.922 262.609C496.276 266.776 492.24 270.227 487.812 272.961C492.37 275.435 496.471 278.82 500.117 283.117C503.763 287.284 506.888 291.906 509.492 296.984C512.096 302.062 514.049 307.401 515.352 313C516.784 318.469 517.5 323.807 517.5 329.016ZM349.531 356.945H433.516C437.422 356.945 441.068 356.229 444.453 354.797C447.839 353.365 450.768 351.411 453.242 348.938C455.846 346.333 457.865 343.339 459.297 339.953C460.729 336.568 461.445 332.922 461.445 329.016C461.445 325.109 460.729 321.464 459.297 318.078C457.865 314.693 455.846 311.763 453.242 309.289C450.768 306.685 447.839 304.667 444.453 303.234C441.068 301.802 437.422 301.086 433.516 301.086H349.531V356.945ZM349.531 245.031H433.516C437.422 245.031 441.068 244.315 444.453 242.883C447.839 241.451 450.768 239.497 453.242 237.023C455.846 234.419 457.865 231.424 459.297 228.039C460.729 224.523 461.445 220.812 461.445 216.906C461.445 213 460.729 209.354 459.297 205.969C457.865 202.583 455.846 199.654 453.242 197.18C450.768 194.576 447.839 192.557 444.453 191.125C441.068 189.693 437.422 188.977 433.516 188.977H349.531V245.031Z"
	/>
</svg>
