<svg width="18" height="18" clip-rule="evenodd" fill-rule="evenodd" stroke-linejoin="round" stroke-miterlimit="2" viewBox="0 0 24 24" xmlns="http://www.w3.org/2000/svg"><path d="m6 18h-3c-.48 0-1-.379-1-1v-14c0-.481.38-1 1-1h14c.621 0 1 .522 1 1v3h3c.621 0 1 .522 1 1v14c0 .621-.522 1-1 1h-14c-.48 0-1-.379-1-1zm1.5-10.5v13h13v-13zm5.75 5.75h-2.5c-.414 0-.75.336-.75.75s.336.75.75.75h2.5v2.5c0 .414.336.75.75.75s.75-.336.75-.75v-2.5h2.5c.414 0 .75-.336.75-.75s-.336-.75-.75-.75h-2.5v-2.5c0-.414-.336-.75-.75-.75s-.75.336-.75.75zm3.25-7.25v-2.5h-13v13h2.5v-9.5c0-.481.38-1 1-1z" fill-rule="nonzero"/></svg>